<svg xmlns="http://www.w3.org/2000/svg" width="38.176" height="42.528" viewBox="0 0 38.176 42.528">
  <g id="Time_Line_Icon_Off" transform="translate(-1.421 1.484)">
    <g id="Group_5" data-name="Group 5" transform="translate(15.461 16.67) rotate(180)">
      <path id="Path_87" data-name="Path 87" d="M0,3.365A3.365,3.365,0,1,0,3.365,0,3.365,3.365,0,0,0,0,3.365Zm5.048,0A1.683,1.683,0,1,1,3.365,1.683,1.683,1.683,0,0,1,5.048,3.365Zm0,0" transform="translate(3.365 7.558)" fill="#fff" stroke="#fff" stroke-width="1"/>
      <path id="Path_88" data-name="Path 88" d="M6.093.279C5.468,1,0,7.459,0,10.923a6.73,6.73,0,1,0,13.461,0C13.461,7.459,7.992,1,7.368.279a.867.867,0,0,0-1.275,0Zm.638,16.56A5.711,5.711,0,0,1,.97,10.923c0-3.143,3.924-7.61,5.76-9.867,1.836,2.256,5.719,6.982,5.719,9.867A5.648,5.648,0,0,1,6.73,16.839Zm0,0" fill="#fff" stroke="#fff" stroke-width="1"/>
      <path id="Path_82" data-name="Path 82" d="M5.048,2.524A2.524,2.524,0,1,1,2.524,0,2.524,2.524,0,0,1,5.048,2.524Zm0,0" transform="translate(4.207 8.399)" fill="#fff" stroke="#fff" stroke-width="1"/>
    </g>
    <path id="Path_93" data-name="Path 93" d="M36.176,0H0" transform="translate(38.597 19.773) rotate(180)" fill="#fff" stroke="#fff" stroke-linecap="round" stroke-width="2"/>
    <g id="Group_6" data-name="Group 6" transform="translate(39.017 16.67) rotate(180)">
      <path id="Path_87-2" data-name="Path 87" d="M0,3.365A3.365,3.365,0,1,0,3.365,0,3.365,3.365,0,0,0,0,3.365Zm5.048,0A1.683,1.683,0,1,1,3.365,1.683,1.683,1.683,0,0,1,5.048,3.365Zm0,0" transform="translate(3.365 7.558)" fill="#fff" stroke="#fff" stroke-width="1"/>
      <path id="Path_88-2" data-name="Path 88" d="M6.093.279C5.468,1,0,7.459,0,10.923a6.73,6.73,0,1,0,13.461,0C13.461,7.459,7.992,1,7.368.279a.867.867,0,0,0-1.275,0Zm.638,16.56A5.711,5.711,0,0,1,.97,10.923c0-3.143,3.924-7.61,5.76-9.867,1.836,2.256,5.719,6.982,5.719,9.867A5.648,5.648,0,0,1,6.73,16.839Zm0,0" fill="#fff" stroke="#fff" stroke-width="1"/>
      <path id="Path_82-2" data-name="Path 82" d="M5.048,2.524A2.524,2.524,0,1,1,2.524,0,2.524,2.524,0,0,1,5.048,2.524Zm0,0" transform="translate(4.207 8.399)" fill="#fff" stroke="#fff" stroke-width="1"/>
    </g>
    <g id="Group_7" data-name="Group 7" transform="translate(18.826 22.89)">
      <path id="Path_87-3" data-name="Path 87" d="M48,323.865a3.365,3.365,0,1,0,3.365-3.365A3.365,3.365,0,0,0,48,323.865Zm5.048,0a1.683,1.683,0,1,1-1.683-1.683A1.683,1.683,0,0,1,53.048,323.865Zm0,0" transform="translate(-44.635 -312.942)" fill="#fff" stroke="#fff" stroke-width="1"/>
      <path id="Path_88-3" data-name="Path 88" d="M22.093,248.908c-.624.724-6.093,7.179-6.093,10.644a6.73,6.73,0,1,0,13.461,0c0-3.465-5.468-9.92-6.093-10.644a.867.867,0,0,0-1.275,0Zm.638,16.56a5.711,5.711,0,0,1-5.76-5.916c0-3.143,3.924-7.61,5.76-9.867,1.836,2.256,5.719,6.982,5.719,9.867A5.648,5.648,0,0,1,22.73,265.468Zm0,0" transform="translate(-16 -248.629)" fill="#fff" stroke="#fff" stroke-width="1"/>
      <path id="Path_82-3" data-name="Path 82" d="M61.048,331.024a2.524,2.524,0,1,1-2.524-2.524A2.524,2.524,0,0,1,61.048,331.024Zm0,0" transform="translate(-51.793 -320.101)" fill="#fff" stroke="#fff" stroke-width="1"/>
    </g>
  </g>
</svg>
