<svg id="soccer-ball-variant-svgrepo-com" xmlns="http://www.w3.org/2000/svg" width="18.133" height="18.132" viewBox="0 0 18.133 18.132">
  <path id="Path_98" data-name="Path 98" d="M5.655.663a9.064,9.064,0,0,0-3,14.814,9.059,9.059,0,0,0,12.822,0,9.059,9.059,0,0,0,0-12.822A9.079,9.079,0,0,0,5.655.663ZM2.266,12.883a6.223,6.223,0,0,1-1.2-.962A8.547,8.547,0,0,1,.795,7.159,7.615,7.615,0,0,1,1.376,6.2c.067-.095.13-.194.2-.286L3.623,7.12v.051a15.761,15.761,0,0,0,.329,3.269c0,.005,0,.008,0,.012L2.368,12.941C2.334,12.923,2.3,12.9,2.266,12.883Zm6.083,4.206a7.79,7.79,0,0,0,1.089.456,8.5,8.5,0,0,1-4.6-1.114l3.43.611C8.295,17.059,8.321,17.075,8.349,17.089Zm-.013-.619-4.047-.721a12.639,12.639,0,0,1-1.266-1.834c-.093-.165-.2-.326-.276-.5l1.585-2.485.119.03a26.306,26.306,0,0,0,3.017.6c.059.008.109.016.151.02l1.9,3.285q-.495.7-1,1.381C8.46,16.325,8.4,16.4,8.337,16.47Zm6.734-1.4a8.434,8.434,0,0,1-1.022.872,7.77,7.77,0,0,0-.306-1.394l2.027-3.782a9.471,9.471,0,0,0,1.6-.9.715.715,0,0,0,.162-.155A8.449,8.449,0,0,1,15.071,15.07Zm-.09-4.905c.075.144.15.289.224.436l-1.958,3.653-.033.007a17.862,17.862,0,0,1-3.2.308L8.058,11.19q.456-.847.9-1.7c.2-.385.4-.772.6-1.159l4.045-.415A22.578,22.578,0,0,1,14.981,10.165ZM14.16,5.832c-.192.507-.4,1.008-.6,1.511l-3.94.4c-.047-.062-.1-.123-.147-.182q-.7-.79-1.4-1.576l.013-.014-.566-.566,1.1-3.3a1.538,1.538,0,0,1,.229-.045c.6-.061,1.193-.129,1.791-.164a8.712,8.712,0,0,1,1.106-.006l2.714,3.059C14.36,5.247,14.269,5.543,14.16,5.832Zm.911-2.77a8.454,8.454,0,0,1,1.738,2.517,8.619,8.619,0,0,0-1.619-.87c-.089-.037-.18-.069-.272-.1L12.246,1.6a3.532,3.532,0,0,0,.032-.392A8.451,8.451,0,0,1,15.071,3.062ZM6.347,1.048c.011.008.016.014.022.016a6.79,6.79,0,0,1,1.69.89L7.034,5.04l-.015.005c-.21.087-.423.164-.63.258A18.066,18.066,0,0,0,3.928,6.632l-2.022-1.2a.611.611,0,0,1,.035-.184c.136-.362.269-.726.423-1.08a8.1,8.1,0,0,1,.4-.795c.1-.106.2-.211.3-.314a8.441,8.441,0,0,1,3.3-2.045Z" fill="#fff"/>
</svg>
