<svg xmlns="http://www.w3.org/2000/svg" width="38.519" height="26.457" viewBox="0 0 38.519 26.457">
  <g id="Standings_Icon_off" transform="translate(-10 -163.4)rotate(0 180 90)" >
    <path id="Path_94" data-name="Path 94" d="M46.742,163.4H11.772A1.773,1.773,0,0,0,10,165.172v22.912a1.773,1.773,0,0,0,1.772,1.772H46.746a1.773,1.773,0,0,0,1.772-1.772V165.172A1.779,1.779,0,0,0,46.742,163.4Zm-2.409,8.442a1.167,1.167,0,0,0-1.167,1.167v7.235a1.167,1.167,0,0,0,1.167,1.167h3.054v1.883H42.521a1.245,1.245,0,0,1-1.242-1.242V171.2a1.245,1.245,0,0,1,1.242-1.242h4.862v1.883Zm3.05,1.132v7.31H44.329a.042.042,0,0,1-.039-.039v-7.235a.042.042,0,0,1,.039-.039h3.054ZM28.691,180.85a4.258,4.258,0,0,1,0-8.442Zm1.132-8.442a4.258,4.258,0,0,1,0,8.442Zm-18.691.566h3.054a.042.042,0,0,1,.039.039v7.235a.042.042,0,0,1-.039.039H11.132Zm0,8.442h3.054a1.167,1.167,0,0,0,1.167-1.167v-7.239a1.167,1.167,0,0,0-1.167-1.167H11.132v-1.883h4.862a1.245,1.245,0,0,1,1.242,1.242v10.855a1.245,1.245,0,0,1-1.242,1.242H11.132Zm0,6.669V184.43h4.862a2.377,2.377,0,0,0,2.374-2.374V171.2a2.377,2.377,0,0,0-2.374-2.374H11.132v-3.655a.641.641,0,0,1,.641-.641H28.691v6.736a5.391,5.391,0,0,0,0,10.721v6.736H11.772A.641.641,0,0,1,11.132,188.085Zm35.61.641H29.823v-6.736a5.391,5.391,0,0,0,0-10.721v-6.736H46.742a.641.641,0,0,1,.641.641v3.655H42.521a2.377,2.377,0,0,0-2.374,2.374v10.855a2.377,2.377,0,0,0,2.374,2.374h4.862v3.655A.641.641,0,0,1,46.742,188.725Z" fill="#fff"/>
  </g>
</svg>
