<?xml version="1.0" encoding="utf-8"?>
<!-- Generator: Adobe Illustrator 24.1.1, SVG Export Plug-In . SVG Version: 6.00 Build 0)  -->
<svg version="1.1" id="Layer_1" xmlns="http://www.w3.org/2000/svg" xmlns:xlink="http://www.w3.org/1999/xlink" x="0px" y="0px"
	 viewBox="0 0 45 45" style="enable-background:new 0 0 45 45;" xml:space="preserve">
<style type="text/css">
	.st0{fill:#fff;}
</style>
<g id="Standings_Icon_off" transform="translate(-10 -163.4)">
	<path id="Path_94" class="st0" d="M19.3,168.4v35c0,1,0.8,1.8,1.8,1.8H44c1,0,1.8-0.8,1.8-1.8v-35c0-1-0.8-1.8-1.8-1.8H21
		C20.1,166.6,19.3,167.4,19.3,168.4z M27.7,170.8c0,0.6,0.5,1.2,1.2,1.2l0,0h7.2c0.6,0,1.2-0.5,1.2-1.2c0,0,0,0,0,0v-3.1h1.9v4.9
		c0,0.7-0.6,1.2-1.2,1.2H27.1c-0.7,0-1.2-0.6-1.2-1.2v-4.9h1.9L27.7,170.8z M28.8,167.8h7.3v3.1c0,0,0,0,0,0h-7.2c0,0,0,0,0,0
		L28.8,167.8L28.8,167.8z M36.7,186.5c-0.3,2.3-2.4,4-4.8,3.7c-1.9-0.3-3.4-1.8-3.7-3.7H36.7z M28.3,185.3c0.3-2.3,2.4-4,4.8-3.7
		c1.9,0.3,3.4,1.8,3.7,3.7H28.3z M28.8,204V201c0,0,0,0,0,0h7.2c0,0,0,0,0,0v3.1H28.8z M37.3,204V201c0-0.6-0.5-1.2-1.2-1.2l0,0
		h-7.2c-0.6,0-1.2,0.5-1.2,1.2c0,0,0,0,0,0v3.1h-1.9v-4.9c0-0.7,0.6-1.2,1.2-1.2h10.9c0.7,0,1.2,0.6,1.2,1.2v4.9H37.3z M44,204h-3.7
		v-4.9c0-1.3-1.1-2.4-2.4-2.4H27.1c-1.3,0-2.4,1.1-2.4,2.4v4.9H21c-0.4,0-0.6-0.3-0.6-0.6c0,0,0,0,0,0v-16.9h6.7
		c0.3,3,3,5.1,5.9,4.8c2.5-0.3,4.5-2.3,4.8-4.8h6.7v16.9C44.6,203.7,44.3,204,44,204z M44.6,168.4v16.9h-6.7c-0.3-3-3-5.1-5.9-4.8
		c-2.5,0.3-4.5,2.3-4.8,4.8h-6.7v-16.9c0-0.4,0.3-0.6,0.6-0.6l0,0h3.7v4.9c0,1.3,1.1,2.4,2.4,2.4h10.9c1.3,0,2.4-1.1,2.4-2.4v-4.9
		H44C44.3,167.8,44.6,168.1,44.6,168.4L44.6,168.4z"/>
</g>
</svg>
