<?xml version="1.0" encoding="utf-8"?>
<!-- Generator: Adobe Illustrator 24.1.1, SVG Export Plug-In . SVG Version: 6.00 Build 0)  -->
<svg version="1.1" id="Layer_1" xmlns="http://www.w3.org/2000/svg" xmlns:xlink="http://www.w3.org/1999/xlink" x="0px" y="0px"
	 viewBox="0 0 45 45" style="enable-background:new 0 0 45 45;" xml:space="preserve">
<style type="text/css">
	.st0{fill:#A0A0A0;stroke:#707070;}
	.st1{fill:#A0A0A0;stroke:#A0A0A0;stroke-width:2;stroke-linecap:round;}
</style>
<g id="Time_Line_Icon_Off" transform="translate(-1.421 1.484)">
	<g id="Group_5" transform="translate(15.461 16.67) rotate(180)">
		<path id="Path_87" class="st0" d="M5.6-12.8c1.9,0,3.4-1.5,3.4-3.4s-1.5-3.4-3.4-3.4S2.2-18,2.2-16.1S3.7-12.8,5.6-12.8
			C5.6-12.8,5.6-12.8,5.6-12.8z M5.6-17.8c0.9,0,1.7,0.8,1.7,1.7c0,0.9-0.8,1.7-1.7,1.7s-1.7-0.8-1.7-1.7c0,0,0,0,0,0
			C3.9-17.1,4.6-17.8,5.6-17.8z"/>
		<path id="Path_88" class="st0" d="M-5.1-15.5c0.7,0.6,7.2,6.1,10.6,6.1c3.7,0,6.7-3,6.7-6.7s-3-6.7-6.7-6.7
			c-3.5,0-9.9,5.5-10.6,6.1C-5.4-16.4-5.4-15.9-5.1-15.5C-5.1-15.5-5.1-15.5-5.1-15.5z M11.5-16.1c0,3.2-2.5,5.7-5.7,5.8
			c-0.1,0-0.2,0-0.3,0c-3.1,0-7.6-3.9-9.9-5.8c2.3-1.8,7-5.7,9.9-5.7c3.1-0.1,5.8,2.3,5.9,5.4C11.5-16.4,11.5-16.2,11.5-16.1
			L11.5-16.1z"/>
		<path id="Path_82" class="st0" d="M5.6-18.6c1.4,0,2.5,1.1,2.5,2.5S7-13.6,5.6-13.6S3-14.7,3-16.1S4.2-18.6,5.6-18.6L5.6-18.6z"/>
	</g>
	<path id="Path_93" class="st1" d="M23.9,39.1V2.9"/>
	<g id="Group_6" transform="translate(39.017 16.67) rotate(180)">
		<path id="Path_87-2" class="st0" d="M29.1,10.8c1.9,0,3.4-1.5,3.4-3.4S31,4.1,29.1,4.1s-3.4,1.5-3.4,3.4S27.3,10.8,29.1,10.8
			C29.1,10.8,29.1,10.8,29.1,10.8z M29.1,5.7c0.9,0,1.7,0.8,1.7,1.7s-0.8,1.7-1.7,1.7s-1.7-0.8-1.7-1.7c0,0,0,0,0,0
			C27.4,6.5,28.2,5.8,29.1,5.7z"/>
		<path id="Path_88-2" class="st0" d="M18.5,8.1c0.7,0.6,7.2,6.1,10.6,6.1c3.7,0,6.7-3,6.7-6.7s-3-6.7-6.7-6.7
			c-3.5,0-9.9,5.5-10.6,6.1C18.1,7.1,18.1,7.7,18.5,8.1C18.5,8,18.5,8.1,18.5,8.1z M35,7.4c0,3.2-2.5,5.7-5.7,5.8
			c-0.1,0-0.2,0-0.3,0c-3.1,0-7.6-3.9-9.9-5.8c2.3-1.8,7-5.7,9.9-5.7C32.2,1.6,34.9,4,35,7.1C35,7.2,35,7.3,35,7.4L35,7.4z"/>
		<path id="Path_82-2" class="st0" d="M29.1,4.9c1.4,0,2.5,1.1,2.5,2.5S30.5,10,29.1,10s-2.5-1.1-2.5-2.5S27.7,4.9,29.1,4.9
			L29.1,4.9z"/>
	</g>
	<g id="Group_7" transform="translate(18.826 22.89)">
		<path id="Path_87-3" class="st0" d="M19.1-3.6c1.9,0,3.4-1.5,3.4-3.4c0-1.9-1.5-3.4-3.4-3.4c-1.9,0-3.4,1.5-3.4,3.4c0,0,0,0,0,0
			C15.8-5.1,17.3-3.6,19.1-3.6z M19.1-8.6c0.9,0,1.7,0.8,1.7,1.7s-0.8,1.7-1.7,1.7c-0.9,0-1.7-0.8-1.7-1.7
			C17.4-7.9,18.2-8.6,19.1-8.6L19.1-8.6z"/>
		<path id="Path_88-3" class="st0" d="M8.5-6.3c0.7,0.6,7.2,6.1,10.6,6.1c3.7,0,6.7-3,6.7-6.7s-3-6.7-6.7-6.7
			c-3.5,0-9.9,5.5-10.6,6.1C8.1-7.2,8.1-6.7,8.5-6.3C8.4-6.3,8.5-6.3,8.5-6.3z M25-6.9c0,3.2-2.5,5.7-5.7,5.8c-0.1,0-0.2,0-0.3,0
			c-3.1,0-7.6-3.9-9.9-5.8c2.3-1.8,7-5.7,9.9-5.7c3.1-0.1,5.8,2.3,5.9,5.4C25-7.2,25-7,25-6.9L25-6.9z"/>
		<path id="Path_82-3" class="st0" d="M19.1-9.4c1.4,0,2.5,1.1,2.5,2.5s-1.1,2.5-2.5,2.5c-1.4,0-2.5-1.1-2.5-2.5c0,0,0,0,0,0
			C16.6-8.3,17.7-9.4,19.1-9.4z"/>
	</g>
</g>
</svg>
