<?xml version="1.0" encoding="utf-8"?>
<!-- Generator: Adobe Illustrator 24.1.1, SVG Export Plug-In . SVG Version: 6.00 Build 0)  -->
<svg version="1.1" id="Layer_1" xmlns="http://www.w3.org/2000/svg" xmlns:xlink="http://www.w3.org/1999/xlink" x="0px" y="0px"
	 viewBox="0 0 45 45" style="enable-background:new 0 0 45 45;" xml:space="preserve">
<style type="text/css">
	.st0{fill:#FFFFFF;}
</style>
<g id="Twitter_Icon" transform="translate(-80.412 38.296) rotate(-90)">
	<path id="Path_95" class="st0" d="M29,124.1c-0.7-1.6-1.2-3.3-1.4-5c1.1,1.8,2.8,3.2,4.8,3.8c-1-1.7-1.7-3.6-2.1-5.5
		c3.5-3.3,3.7-8.8,0.4-12.3c-1.6-1.8-3.9-2.8-6.4-2.8c-0.7,0-1.3,0.1-2,0.2c0.3-7,3.7-13.5,9.1-17.9c-4-2.3-9.1-1.1-11.6,2.7
		c0-1.4,0.4-2.7,1.1-3.9h-0.1c-4.1,0-7.7,2.9-8.5,7c-0.2-0.7-0.3-1.5-0.3-2.3c0-0.5,0.1-1.1,0.2-1.6c-3.5,1.1-6,4.4-6,8.1
		c-2.9-3.6-4.2-8.3-3.6-12.9c-2.6,4-3.9,8.6-3.9,13.3c0,16,13.3,24.8,24.8,24.8c0.4,0,0.8,0,1.1,0C25.7,121.5,27.2,122.9,29,124.1z
		 M25.6,118.9l-0.5-0.6l-0.8,0c-0.3,0-0.7,0-1.1,0c-2.8,0-5.6-0.5-8.2-1.5c-2.8-1-5.3-2.5-7.5-4.5c-2.3-2-4.2-4.5-5.5-7.3
		C0.7,101.9,0,98.5,0,95c0-2.6,0.4-5.2,1.3-7.6c0.6,2.9,1.8,5.7,3.7,8l2.5,3.2l0.1-4c0-2.3,1.2-4.4,3-5.8c0,0.7,0.2,1.3,0.3,1.9
		l1.8,5.5l1-5.5c0.5-2.6,2.5-4.7,5-5.5c-0.2,0.7-0.3,1.4-0.3,2.1c0,0-0.1,2.9,0,5c0.6-1.2,2.6-4.2,2.6-4.2c1.4-2,3.6-3.2,6.1-3.2
		c0.6,0,1.1,0.1,1.7,0.2c-4.7,4.6-7.5,10.8-7.9,17.4l-0.1,1.9l1.9-0.4c3.9-0.9,7.8,1.5,8.7,5.4c0.6,2.5-0.2,5.2-2.1,7l-0.6,0.5
		l0.2,0.8c0.1,0.4,0.2,0.8,0.3,1.2c-0.3-0.3-0.7-0.6-1-1c-0.4-0.4-1.5-1.6-1.5-1.6c-0.2,0.6-0.3,1.3-0.4,1.9c0,0.6,0,1.1,0.1,1.7
		C26.1,119.6,25.8,119.2,25.6,118.9L25.6,118.9z"/>
</g>
</svg>
