<svg xmlns="http://www.w3.org/2000/svg" width="382.72" height="243.589" viewBox="0 0 382.72 243.589">
  <g id="Soccer_field_bg123" transform="translate(-13.245 -6.373)">
    <path id="Path_97" data-name="Path 97" d="M32.642,0A32.642,32.642,0,1,1,0,32.642,32.642,32.642,0,0,1,32.642,0Z" transform="translate(171.963 95.524)" fill="none" stroke="rgba(255,255,255,0.47)" stroke-width="1"/>
    <path id="Path_39" data-name="Path 39" d="M43.567,324.4H40v25.757h3.567Z" transform="translate(-26.255 -208.933)" fill="rgba(0,0,0,0)" stroke="rgba(255,255,255,0.47)" stroke-width="1"/>
    <path id="Path_40" data-name="Path 40" d="M1100,324.4h3.568v25.757H1100Z" transform="translate(-708.102 -208.933)" fill="rgba(0,0,0,0)" stroke="rgba(255,255,255,0.47)" stroke-width="1"/>
    <path id="Path_41" data-name="Path 41" d="M50,269.4H69.621v65H50Z" transform="translate(-32.687 -173.555)" fill="rgba(0,0,0,0)" stroke="rgba(255,255,255,0.47)" stroke-width="1"/>
    <path id="Path_42" data-name="Path 42" d="M1064.621,269.4H1045v65h19.621Z" transform="translate(-672.723 -173.555)" fill="rgba(0,0,0,0)" stroke="rgba(255,255,255,0.47)" stroke-width="1"/>
    <path id="Path_43" data-name="Path 43" d="M50,159.4h58.863V302.884H50Z" transform="translate(-32.687 -102.797)" fill="rgba(0,0,0,0)" stroke="rgba(255,255,255,0.47)" stroke-width="1"/>
    <path id="Path_44" data-name="Path 44" d="M993.863,159.4H935V302.884h58.863Z" transform="translate(-601.966 -102.797)" fill="rgba(0,0,0,0)" stroke="rgba(255,255,255,0.47)" stroke-width="1"/>
    <path id="Path_45" data-name="Path 45" d="M215,286.875a32.642,32.642,0,0,1,0,52.174Z" transform="translate(-138.824 -184.795)" fill="none" stroke="rgba(255,255,255,0.47)" stroke-width="1"/>
    <path id="Path_46" data-name="Path 46" d="M911.521,286.875a32.642,32.642,0,0,0,0,52.174Z" transform="translate(-578.487 -184.795)" fill="none" stroke="rgba(255,255,255,0.47)" stroke-width="1"/>
    <path id="Path_47" data-name="Path 47" d="M50,23.567A3.567,3.567,0,0,0,53.567,20H50Z" transform="translate(-32.687 -13.127)" fill="rgba(0,0,0,0)" stroke="rgba(255,255,255,0.47)" stroke-width="1"/>
    <path id="Path_48" data-name="Path 48" d="M53.567,693.568A3.568,3.568,0,0,0,50,690v3.568Z" transform="translate(-32.687 -444.106)" fill="rgba(0,0,0,0)" stroke="rgba(255,255,255,0.47)" stroke-width="1"/>
    <path id="Path_49" data-name="Path 49" d="M1093.568,690a3.568,3.568,0,0,0-3.568,3.568h3.568Z" transform="translate(-701.67 -444.106)" fill="rgba(0,0,0,0)" stroke="rgba(255,255,255,0.47)" stroke-width="1"/>
    <path id="Path_50" data-name="Path 50" d="M1090,20a3.567,3.567,0,0,0,3.568,3.567V20Z" transform="translate(-701.67 -13.127)" fill="rgba(0,0,0,0)" stroke="rgba(255,255,255,0.47)" stroke-width="1"/>
    <path id="Path_38" data-name="Path 38" d="M237.293,20H50V262.589H424.585V20H237.293l-.027.114Z" transform="translate(-32.687 -13.127)" fill="none" stroke="rgba(255,255,255,0.47)" stroke-width="1"/>
    <path id="Path_96" data-name="Path 96" d="M204.605,27.5V270.447" transform="translate(0 -20.628)" fill="none" stroke="rgba(255,255,255,0.47)" stroke-width="1"/>
  </g>
</svg>
